<svg id="Layer_1" data-name="Layer 1" xmlns="http://www.w3.org/2000/svg" viewBox="0 0 359.05 269.4">
  <defs>
    <style>
      .cls-1 {
        fill: #343A40;
      }
    </style>
  </defs>
  <g>
    <path class="cls-1" d="M24.44,269.4h57.1V130.76L0,69.66V245.2A24.37,24.37,0,0,0,24.44,269.4Z"/>
    <path class="cls-1" d="M277.51,269.4h57.11A24.42,24.42,0,0,0,359.05,245V69.43l-81.54,61.09V269.4Z"/>
    <path class="cls-1" d="M277.51,24.55v106l81.54-61.09V36.77c0-30.32-34.54-47.47-58.74-29.38Z"/>
    <path class="cls-1" d="M81.54,130.76v-106l98,73.55,98-73.55v106l-98,73.31Z"/>
    <path class="cls-1" d="M0,36.77V69.43l81.54,61.09v-106L58.75,7.39C34.54-10.7,0,6.69,0,36.77Z"/>
  </g>
</svg>
