<svg xmlns="http://www.w3.org/2000/svg" viewBox="0 0 555.3 521.44"><g id="Layer_1" data-name="Layer 1"><path d="M263.9,5.93c4.18-3.27,9.18-6.21,14.67-5.91s10.06,3.32,14.13,6.59C330.6,38.7,369,70.26,407.19,102c.14-14.39.29-28.77-.07-43.15,0-3.33.18-7.44,3.3-9.44,5.08-2.94,11.1-1.19,16.62-1.18,12.87.21,25.77.37,38.63-.41,2.78-.07,5.8,0,8.24,1.55,2,1.38,2.74,4,3,6.32.34,4,.05,8,.05,12-.14,20,.25,40-.12,60-.32,9.77-2.12,19.78.56,29.4,2.68,10.47,10.28,18.78,18.76,25.08,19.3,15.24,36.91,32.44,55.29,48.74,2.16,2.1,4.51,5,3.69,8.21-1,4.09-5.15,8.17-9.66,6.88-4.61-1.64-8-5.37-11.79-8.35q-116.08-99.91-232-200c-5.28-4.45-10.56-9.06-16.79-12.15a16.32,16.32,0,0,0-11.69-1.11c-4.2,1.39-7.88,4-11.38,6.59-6.74,5.21-13.12,10.87-19.56,16.45Q128.37,146,14,244.06c-2.23,1.9-5.47,3.05-8.26,1.68-3.41-1.64-6.55-5.43-5.6-9.42,1.1-3.58,4.25-5.88,7-8.22C92.25,153.52,176.29,77.63,263.9,5.93ZM423.83,70.67c-.24,12.34.19,24.68-.1,37,.12,3.46-.57,7.31,1.42,10.39s4.82,5.29,7.51,7.63c9.25,7.74,18,16.07,27.43,23.62.06-25.56,0-51.11.05-76.67.09-3-1.19-6.21-4-7.46-2.77-.69-5.65-.35-8.46-.37-6,.17-12-.14-18,0A5.64,5.64,0,0,0,423.83,70.67Z"/><path d="M278,41.86c9.55,3.35,16.78,10.68,24.2,17.23q120.65,99.82,240.94,200.07c3.9,3.4,8.82,6.08,11.09,10.95,1.72,3.57.94,7.62.13,11.31-2.88.52-5.76,1.08-8.68,1.33-20.23,1.7-40.61-1.2-60.79,1.38-2.86,15.37-2.62,31.07-3.57,46.62-.49,13.64-.51,27.3-.62,40.95q-.65,19.49,0,39c.2,13,0,26,1,39a106.7,106.7,0,0,0,1.17,13.71,45.45,45.45,0,0,0,15.73,2.85c9.64,0,19.48-1.08,28.9,1.61.47,4.92.66,9.85,1,14.78.85,12.9-.38,25.81-.82,38.7q-243.54,0-487.08,0c-6.11,0-12.22-.08-18.33.1a201.5,201.5,0,0,1-1.75-30.76c.47-7.6.69-15.23,1.58-22.8,13.37-4.05,27.54.28,40.94-3.46.63-6.89,1.35-13.78,1.38-20.71.84-14.66,1-29.34,1-44,.85-22.32.55-44.67.41-67-.55-10.32-.4-20.65-.69-31-.12-5.53-.83-11-1-16.54-20.67-5-42.09.53-62.89-3.33-1.11-3.53-2-7.4-.68-11,1.52-3.89,5.08-6.41,8.23-8.94Q124.25,167.27,239.56,72.57C252.38,62.33,264.65,51.4,278,41.86Zm-6.63,88.58c-55.22,48.78-110.3,97.72-165.75,146.25a26.05,26.05,0,0,0-8.72,17c-.72,7.31-.26,14.65-.19,22q.11,66,.06,132c0,5.25-.85,10.95,2.24,15.6,6.48,1.15,13.07,1.09,19.62,1.24,14.35.77,28.73.86,43.09.88q.08-85.43,0-170.86,43,0,86.07,0-.09,85.77,0,171.55,34,.12,67.91-.2c32-.68,64-.08,96-1.38,11.91,0,23.83-.51,35.7-1.61.11-60.06,0-120.13.06-180.19q-84-78.33-168.06-156.61C276.51,127.18,273.63,128.33,271.38,130.44Z"/><path d="M317.33,269.54c27.15-.21,54.31,0,81.47-.09q0,5.94,0,11.9-40.81-.08-81.62,0C317.16,277.4,317.18,273.47,317.33,269.54Z"/><path d="M317.33,297.38q40.74,0,81.47,0c0,8.55,0,17.11,0,25.67-27.16.07-54.31,0-81.46,0Q317.32,310.24,317.33,297.38Z"/><path d="M317.32,366.91c10.89.17,21.8.21,32.69,0,0,8.62,0,17.24,0,25.86-10.9,0-21.79,0-32.69,0C317.3,384.13,317.26,375.52,317.32,366.91Z"/><path d="M366.08,367c10.9,0,21.79,0,32.69,0,0,8.6,0,17.19,0,25.79-10.89-.08-21.79.13-32.68-.13Q366.22,379.81,366.08,367Z"/><path d="M317.39,408.62q16.29,0,32.58,0,0,12.93,0,25.86-16.29-.33-32.58,0Q317.38,421.53,317.39,408.62Z"/><path d="M366,408.71c10.91-.23,21.83,0,32.75-.15,0,8.59.07,17.18,0,25.77q-16.35,0-32.7,0Q366.13,421.53,366,408.71Z"/></g></svg>