<svg id="Layer_1" data-name="Layer 1" xmlns="http://www.w3.org/2000/svg" viewBox="0 0 841.89 835.93"><defs><style>.cls-1,.cls-2{fill:#fff;}.cls-1{fill-opacity:0;}</style></defs><rect class="cls-1" width="841.89" height="835.93"/><path class="cls-2" d="M156,645.3V296.65a27.75,27.75,0,0,1,3.14-13.15,291.64,291.64,0,0,1,63.55-83.14c1.62-1.57,3.08-4.71,5.74-3.52s1.46,4.33,1.46,6.6v500A13.69,13.69,0,0,0,237.55,717a384.9,384.9,0,0,0,67.07,32.1c5.41,1.9,7,.92,6.55-4.49V170c0-6.44,0-12.93-.38-19.43a7.63,7.63,0,0,1,5.9-8.28,334.27,334.27,0,0,1,61.81-16.24c4.87-.76,6.34.76,6.17,5.41V825.93c0,10.55,0,10.82-10.12,9.36-157-22.25-270.65-104.14-336.79-248C-10.47,482.37-12,373.57,30.29,265.91,77.11,146.82,162.69,65.63,282.69,21.62a397.46,397.46,0,0,1,92-20.89c7.69-.65,10.13,1.13,9.91,8.82-.54,16.24-.65,32.48,0,48.72.32,7.85-1.95,10.82-9.85,11.74A334.57,334.57,0,0,0,231,122.9C152.4,174.32,100.6,245.66,79.65,337c-25.33,110.31-1.89,211.1,67.72,300.52A20.16,20.16,0,0,0,156,645.3Z"/><path class="cls-2" d="M458.5,801.19V773.64c0-4.49,1.36-6.66,6.34-7.31A338.77,338.77,0,0,0,662.08,673.5c76.65-72.86,115.68-163.09,110-268.48-7.63-143.93-79.62-247.1-210.24-308.54a307.82,307.82,0,0,0-97.43-26.63c-5.41-.65-6.66-3.3-6.6-8,0-18.35.48-36.7,0-55.1.32-5.85,2.21-7.09,7.63-6.66A407.17,407.17,0,0,1,539.1,14.53a411.79,411.79,0,0,1,175.38,102c65,63.93,106.69,140.74,121.31,231.19,19.1,118.16-6.55,226.26-78.38,322C688.66,761.35,596.26,815.1,483.13,833.29c-5.41.86-11.26,1.14-16.83,2.11s-8-.81-7.74-6.71c.16-9.2-.06-18.41-.06-27.5Z"/><path class="cls-2" d="M459.7,673.82V644.65c0-4.44,1.62-5.85,5.79-6.82,92.94-21.65,153.72-78.38,174.78-170.94,20.08-87.91-7.79-163.69-77.08-222.53a211.16,211.16,0,0,0-96.89-45.9c-5.41-1.08-6.82-3.62-6.71-8.77,0-18.08.59-36.21,0-54.13-.33-8.39,3-8.66,9.42-7.52a290.66,290.66,0,0,1,111.77,43.3c71.56,47.1,115.78,112.92,130.83,197.14a285.16,285.16,0,0,1-24.79,177.38,290.14,290.14,0,0,1-94.24,112,293.2,293.2,0,0,1-123.74,50.88c-6.92,1.14-9.85,0-9.2-7.85.71-8.87,0-17.81,0-26.74Z"/></svg>