<svg id="Layer_1" data-name="Layer 1" xmlns="http://www.w3.org/2000/svg" viewBox="0 0 438.6 292.25"><defs><style>.cls-1,.cls-2{fill:#fff;}.cls-1{fill-opacity:0;}</style></defs><rect class="cls-1" x="145" y="0.02" width="148.6" height="147.5"/><path class="cls-2" d="M172.5,113.92V52.42a4.65,4.65,0,0,1,.6-2.3,51.71,51.71,0,0,1,11.2-14.7c.3-.3.5-.8,1-.6s.3.8.3,1.2v88.1a2.43,2.43,0,0,0,1.3,2.4,67.44,67.44,0,0,0,11.8,5.7c1,.3,1.2.2,1.2-.8V30c0-1.1,0-2.3-.1-3.4a1.42,1.42,0,0,1,1-1.5,58.4,58.4,0,0,1,10.9-2.9c.9-.1,1.1.1,1.1,1v122.5c0,1.9,0,1.9-1.8,1.7-27.7-3.9-47.8-18.4-59.4-43.8-8.5-18.5-8.8-37.7-1.3-56.7,8.3-21,23.4-35.3,44.5-43.1A69.24,69.24,0,0,1,211,.12c1.4-.1,1.8.2,1.7,1.6-.1,2.9-.1,5.7,0,8.6.1,1.4-.3,1.9-1.7,2.1a59.16,59.16,0,0,0-25.4,9.3c-13.9,9.1-23,21.7-26.7,37.8-4.5,19.5-.3,37.3,11.9,53A5.52,5.52,0,0,0,172.5,113.92Z"/><path class="cls-2" d="M225.9,141.42v-4.9c0-.8.2-1.2,1.1-1.3a59.63,59.63,0,0,0,34.8-16.4c13.5-12.9,20.4-28.8,19.4-47.4C279.9,46,267.1,27.82,244.1,17a53.6,53.6,0,0,0-17.2-4.7c-1-.1-1.2-.6-1.2-1.4,0-3.2.1-6.5,0-9.7.1-1,.4-1.3,1.3-1.2a65.11,65.11,0,0,1,13,2.6,71.55,71.55,0,0,1,30.9,18,72.19,72.19,0,0,1,21.4,40.8c3.4,20.9-1.2,39.9-13.8,56.8-12.1,16.2-28.4,25.7-48.4,28.9-1,.2-2,.2-3,.4s-1.4-.1-1.4-1.2a41,41,0,0,0,.2-4.9Z"/><path class="cls-2" d="M226.1,118.92v-5.1c0-.8.3-1,1-1.2,16.4-3.8,27.1-13.8,30.8-30.2,3.5-15.5-1.4-28.9-13.6-39.3A37.66,37.66,0,0,0,227.2,35c-1-.2-1.2-.6-1.2-1.5,0-3.2.1-6.4,0-9.6-.1-1.5.5-1.5,1.7-1.3a51.53,51.53,0,0,1,19.7,7.6c12.6,8.3,20.4,19.9,23.1,34.8a50.53,50.53,0,0,1-4.4,31.3,52.23,52.23,0,0,1-16.6,19.8,53,53,0,0,1-21.8,9c-1.2.2-1.7,0-1.6-1.4.1-1.6,0-3.1,0-4.8Z"/><path class="cls-2" d="M110.3,187.62l-19.6,51.6-23.8-51.6H54l-22.4,51.7-21.1-51.7H0L27.3,257h8.6l24.5-57.3L86.3,257h8.5l26.2-69.4Zm17.4,14.5v40.5a14.64,14.64,0,0,0,14.5,14.5h41.6a14.6,14.6,0,0,0,14.6-14.5v-40.5a14.6,14.6,0,0,0-14.6-14.5H142.2A14.58,14.58,0,0,0,127.7,202.12Zm60.8,0v40.5a4.76,4.76,0,0,1-4.7,4.7H142.2a4.83,4.83,0,0,1-4.7-4.7v-40.5a4.83,4.83,0,0,1,4.7-4.7h41.6A4.83,4.83,0,0,1,188.5,202.12Zm20.9,0V257h9.8v-54.9a4.76,4.76,0,0,1,4.7-4.7h39v-9.8h-39A14.64,14.64,0,0,0,209.4,202.12Zm71.4,25.1h19.1L327.2,257H340l-31.4-34.7,31.5-34.7H327.2l-27.3,29.8H280.8v-52.6H271V257h9.8v-29.8Zm77.3,20h-9.8V257h9.8Zm15.6,9.8h9.8v-69.4h-9.8Zm0-92.1v9.8h9.8v-9.8ZM413.2,257h25.4v-9.8H413.2a4.83,4.83,0,0,1-4.7-4.7v-45.1h30.1v-9.8H408.5v-22.8h-9.8v77.7A14.51,14.51,0,0,0,413.2,257Z"/><path class="cls-2" d="M104.76,283.85h-5.9l.9-3c.3-1.1.7-2.2,1-3.3l.9-3.3h.1a31.8,31.8,0,0,0,1,3.3c.3,1.1.6,2.2,1,3.3Zm.7,2,1.8,5.9h2.6l-6.6-19.5h-2.8l-6.6,19.5h2.5l1.9-5.9Zm7.2-13.6v19.5h2.5v-7.7h3.5a8.47,8.47,0,0,0,2.9-.4,6.14,6.14,0,0,0,2.3-1.1,4.71,4.71,0,0,0,1.5-1.9,7.54,7.54,0,0,0,0-5.4,4.89,4.89,0,0,0-1.4-1.8,7,7,0,0,0-2.3-1,13.58,13.58,0,0,0-2.9-.3h-6.1Zm5.7,9.8h-3.2v-7.8h3.2a7.68,7.68,0,0,1,3.8.8,3.24,3.24,0,0,1,1.3,2.9,3.51,3.51,0,0,1-1.2,3A6.24,6.24,0,0,1,118.36,282.05Zm11.4-9.8v19.5h2.5v-7.7h3.5a8.47,8.47,0,0,0,2.9-.4,5.48,5.48,0,0,0,2.3-1.1,5.75,5.75,0,0,0,1.5-1.9,7.54,7.54,0,0,0,0-5.4,4.28,4.28,0,0,0-1.5-1.8,7,7,0,0,0-2.3-1,13.58,13.58,0,0,0-2.9-.3h-6Zm5.7,9.8h-3.2v-7.8h3.2a7.68,7.68,0,0,1,3.8.8,3.19,3.19,0,0,1,1.2,2.9,3.51,3.51,0,0,1-1.2,3A5.74,5.74,0,0,1,135.46,282.05Zm11.4-9.8v19.5h11v-2.1h-8.5v-17.4Zm14.5,0v19.5h2.5v-19.5Zm16.1,11.6h-5.9l.9-3c.3-1.1.7-2.2,1-3.3l.9-3.3h.1a31.8,31.8,0,0,0,1,3.3c.3,1.1.6,2.2,1,3.3Zm.6,2,1.8,5.9h2.6l-6.6-19.5h-2.8l-6.6,19.5H169l1.9-5.9Zm7.3-13.6v19.5h2.4v-10.2c0-1,0-2.1-.1-3.1s-.1-2-.2-3h.1l2.1,4,7.1,12.3h2.6v-19.5H197v10.1c0,1,0,2.1.1,3.1a30.28,30.28,0,0,0,.2,3.1h-.1l-2.1-4-7-12.2h-2.7Zm18.1,9.8a14.42,14.42,0,0,0,.6,4.3,9.16,9.16,0,0,0,1.8,3.2,8.62,8.62,0,0,0,2.7,2,9.37,9.37,0,0,0,3.4.7,7,7,0,0,0,3.3-.7,7.55,7.55,0,0,0,2.6-2.1l-1.4-1.5a7.42,7.42,0,0,1-2,1.6,4.87,4.87,0,0,1-2.5.6,5.14,5.14,0,0,1-2.5-.6,5.81,5.81,0,0,1-1.9-1.6,8.3,8.3,0,0,1-1.2-2.5,13.81,13.81,0,0,1,0-6.6,8.3,8.3,0,0,1,1.2-2.5,5.81,5.81,0,0,1,1.9-1.6,5.34,5.34,0,0,1,2.5-.5,5.09,5.09,0,0,1,2.2.5,7,7,0,0,1,1.7,1.3l1.4-1.6a9.84,9.84,0,0,0-2.2-1.7,6.17,6.17,0,0,0-3.1-.7,8.42,8.42,0,0,0-3.5.7,6,6,0,0,0-2.7,2A8.34,8.34,0,0,0,204,278,13.18,13.18,0,0,0,203.46,282.05Zm18-9.8v19.5H233v-2.1h-9.1v-7.1h7.4v-2.1h-7.4v-6.1h8.8v-2.1Zm24.2,9.3v-7.3H249a6.71,6.71,0,0,1,3.5.8,2.93,2.93,0,0,1,1.2,2.7,3.23,3.23,0,0,1-1.2,2.8,5.84,5.84,0,0,1-3.5.9h-3.3Zm8.2,10.2h2.8l-4.9-8.5a6.13,6.13,0,0,0,3.2-1.9,5.22,5.22,0,0,0,1.2-3.6,6.69,6.69,0,0,0-.5-2.6,4.57,4.57,0,0,0-1.4-1.7,6.34,6.34,0,0,0-2.2-.9,11.76,11.76,0,0,0-2.7-.3h-6.1v19.5h2.5v-8.2h3.5Zm6.6-19.5v19.5H272v-2.1h-9.1v-7.1h7.4v-2.1h-7.4v-6.1h8.8v-2.1Zm15.6,0v19.5h2.5v-7.7h3.5a8.47,8.47,0,0,0,2.9-.4,6.14,6.14,0,0,0,2.3-1.1,4.71,4.71,0,0,0,1.5-1.9,7.54,7.54,0,0,0,0-5.4,4.89,4.89,0,0,0-1.4-1.8,7,7,0,0,0-2.3-1,13.58,13.58,0,0,0-2.9-.3h-6.1Zm5.7,9.8h-3.2v-7.8h3.2a7.68,7.68,0,0,1,3.8.8,3.24,3.24,0,0,1,1.3,2.9,3.51,3.51,0,0,1-1.2,3A6.71,6.71,0,0,1,281.76,282.05Zm18.3,1.8h-5.9l.9-3c.3-1.1.7-2.2,1-3.3l.9-3.3h.1a31.8,31.8,0,0,0,1,3.3c.3,1.1.6,2.2,1,3.3Zm.6,2,1.8,5.9h2.6l-6.6-19.5h-2.8l-6.6,19.5h2.5l1.9-5.9Zm7.2-13.6v19.5h2.5v-19.5Zm10.3,9.3v-7.3h3.3a6.71,6.71,0,0,1,3.5.8,2.93,2.93,0,0,1,1.2,2.7,3.23,3.23,0,0,1-1.2,2.8,5.84,5.84,0,0,1-3.5.9h-3.3Zm8.2,10.2h2.8l-4.9-8.5a6.13,6.13,0,0,0,3.2-1.9,6.37,6.37,0,0,0,.7-6.2,4.57,4.57,0,0,0-1.4-1.7,6.34,6.34,0,0,0-2.2-.9,11.76,11.76,0,0,0-2.7-.3h-6.1v19.5h2.5v-8.2h3.5Zm6.2-4.2-1.5,1.7a10.19,10.19,0,0,0,3,2.1,9.57,9.57,0,0,0,3.8.8,8.25,8.25,0,0,0,2.8-.4,7.19,7.19,0,0,0,2.1-1.2,4.63,4.63,0,0,0,1.3-1.8,5.45,5.45,0,0,0,.5-2.2,5.82,5.82,0,0,0-.3-1.9,6.38,6.38,0,0,0-.8-1.4,4.73,4.73,0,0,0-1.3-1.1,8,8,0,0,0-1.6-.8l-2.8-1.2a6.12,6.12,0,0,1-1.2-.5,8.79,8.79,0,0,1-1-.6,1.6,1.6,0,0,1-.7-.9,2.13,2.13,0,0,1-.3-1.2,2.39,2.39,0,0,1,1-2.1,4,4,0,0,1,2.6-.8,7,7,0,0,1,2.5.5,8.58,8.58,0,0,1,2,1.3l1.3-1.6a9.42,9.42,0,0,0-2.5-1.8,8.76,8.76,0,0,0-3.2-.7,6.9,6.9,0,0,0-2.5.4,4.53,4.53,0,0,0-1.9,1.1,6.53,6.53,0,0,0-1.3,1.6,4.64,4.64,0,0,0-.4,2.1,5.41,5.41,0,0,0,.3,1.9,3.39,3.39,0,0,0,.9,1.4,6.42,6.42,0,0,0,1.3,1,9.14,9.14,0,0,0,1.4.7l2.8,1.2c.4.2.9.4,1.3.6a3.59,3.59,0,0,1,1,.7,2.18,2.18,0,0,1,.7.9,4.44,4.44,0,0,1,.2,1.3A2.84,2.84,0,0,1,341,289a4.48,4.48,0,0,1-3,.9,5.92,5.92,0,0,1-2.9-.7A6.69,6.69,0,0,1,332.56,287.55Z"/></svg>