<svg xmlns="http://www.w3.org/2000/svg" id="Layer_1" data-name="Layer 1" viewBox="0 -0.04 388.6 93"><defs><style>.cls-1{fill:#fff;}</style></defs><path class="cls-1" d="M17.36,71.77V33a2.93,2.93,0,0,1,.38-1.45,32.73,32.73,0,0,1,7.06-9.26c.18-.19.31-.5.63-.38s.18.51.18.76V78.19a1.53,1.53,0,0,0,.82,1.51,42.13,42.13,0,0,0,7.44,3.59c.63.19.75.13.75-.5V18.91c0-.69,0-1.45-.06-2.14a.9.9,0,0,1,.63-.95A36.93,36.93,0,0,1,42.05,14c.57-.06.7.07.7.63V91.79c0,1.19,0,1.19-1.14,1.07C24.17,90.4,11.5,81.27,4.2,65.27a44.09,44.09,0,0,1-.82-35.72c5.23-13.22,14.74-22.23,28-27.14A43.49,43.49,0,0,1,41.61.09c.88-.07,1.14.12,1.07,1-.06,1.83-.06,3.6,0,5.42.07.88-.19,1.2-1.07,1.32a37.44,37.44,0,0,0-16,5.86A37.82,37.82,0,0,0,8.8,37.5C6,49.78,8.61,61,16.29,70.89A3.63,3.63,0,0,0,17.36,71.77Z"/><path class="cls-1" d="M51,89.09V86c0-.5.12-.75.69-.82A37.5,37.5,0,0,0,73.61,74.85C82.11,66.73,86.46,56.71,85.83,45,85,29,77,17.53,62.46,10.72a33.48,33.48,0,0,0-10.83-3c-.63-.06-.76-.38-.76-.88,0-2,.07-4.1,0-6.11.07-.63.25-.82.82-.76a41.57,41.57,0,0,1,8.19,1.64A45,45,0,0,1,79.34,13a45.42,45.42,0,0,1,13.48,25.7,45.42,45.42,0,0,1-8.69,35.77C76.51,84.67,66.24,90.65,53.64,92.67c-.63.12-1.26.12-1.89.25s-.88-.06-.88-.76A24.33,24.33,0,0,0,51,89.08Z"/><path class="cls-1" d="M51.12,74.92V71.7c0-.5.19-.63.63-.75,10.33-2.39,17.07-8.69,19.4-19,2.21-9.77-.88-18.21-8.56-24.76a23.81,23.81,0,0,0-10.77-5.11c-.63-.13-.76-.38-.76-.95,0-2,.06-4,0-6-.06-1,.32-1,1.07-.82a32.78,32.78,0,0,1,27,26.7,31.82,31.82,0,0,1-2.77,19.72A32.66,32.66,0,0,1,52.13,78.81c-.75.13-1.07,0-1-.88s0-2,0-3Z"/><path class="cls-1" d="M179,24.33,166.48,57.26,151.29,24.33h-8.23l-14.3,33-13.47-33h-6.7L126,68.61h5.49L147.14,32l16.53,36.57h5.43l16.72-44.29Zm11.11,9.25V59.44a9.34,9.34,0,0,0,9.25,9.25h26.56a9.32,9.32,0,0,0,9.32-9.25V33.58a9.32,9.32,0,0,0-9.32-9.25H199.35A9.3,9.3,0,0,0,190.1,33.58Zm38.81,0V59.44a3.06,3.06,0,0,1-3,3H199.35a3.1,3.1,0,0,1-3-3V33.58a3.1,3.1,0,0,1,3-3h26.56A3.1,3.1,0,0,1,228.91,33.58Zm13.34,0v35h6.25v-35a3,3,0,0,1,3-3h24.9V24.32H251.5A9.33,9.33,0,0,0,242.25,33.58Zm45.57,16H300l17.43,19h8.17l-20-22.15,20.1-22.14h-8.23L300,43.34H287.82V9.76h-6.25V68.61h6.25v-19Zm49.34,12.76h-6.25v6.24h6.25Zm10,6.26h6.26V24.33h-6.26Zm0-58.79v6.25h6.26V9.84Zm25.21,58.77h16.22V62.36H372.33a3.08,3.08,0,0,1-3-3V30.57h19.22V24.32H369.33V9.76h-6.25v49.6A9.25,9.25,0,0,0,372.33,68.61Z"/><path class="cls-1" d="M175.46,85.75h-3.77l.57-1.91c.2-.7.45-1.41.64-2.11l.58-2.11h.06a19,19,0,0,0,.64,2.11c.19.7.38,1.41.64,2.11ZM175.9,87l1.15,3.76h1.66L174.5,78.35h-1.79L168.5,90.79h1.59L171.31,87Zm4.6-8.68V90.79h1.59V85.88h2.24a5.31,5.31,0,0,0,1.85-.26,3.77,3.77,0,0,0,1.47-.7,2.89,2.89,0,0,0,.95-1.21,4.77,4.77,0,0,0,0-3.45,3.13,3.13,0,0,0-.89-1.15,4.37,4.37,0,0,0-1.47-.63,8.88,8.88,0,0,0-1.85-.2H180.5Zm3.64,6.25h-2v-5h2a4.84,4.84,0,0,1,2.42.52,2,2,0,0,1,.83,1.85,2.23,2.23,0,0,1-.76,1.91A4,4,0,0,1,184.14,84.6Zm7.27-6.25V90.79H193V85.88h2.23a5.25,5.25,0,0,0,1.85-.26,3.4,3.4,0,0,0,1.47-.7,3.65,3.65,0,0,0,1-1.21,4.88,4.88,0,0,0,0-3.45,2.82,2.82,0,0,0-1-1.15,4.37,4.37,0,0,0-1.47-.63,8.81,8.81,0,0,0-1.85-.2h-3.83Zm3.64,6.25h-2v-5h2a4.87,4.87,0,0,1,2.43.52,2,2,0,0,1,.76,1.85,2.23,2.23,0,0,1-.76,1.91,3.64,3.64,0,0,1-2.43.7Zm7.28-6.25V90.79h7V89.45h-5.43V78.35Zm9.25,0V90.79h1.6V78.35Zm10.28,7.4h-3.77l.58-1.91c.19-.7.45-1.41.64-2.11l.57-2.11h.06a21.42,21.42,0,0,0,.64,2.11c.19.7.39,1.41.64,2.11Zm.38,1.28,1.15,3.76h1.66l-4.21-12.44h-1.79l-4.21,12.44h1.62L217.67,87Zm4.66-8.68V90.79h1.53V84.28c0-.63,0-1.34-.06-2s-.06-1.28-.13-1.92h.07l1.34,2.55,4.53,7.85h1.66V78.35h-1.51v6.44a18.62,18.62,0,0,0,.07,2,18.62,18.62,0,0,0,.12,2h-.06l-1.34-2.55-4.47-7.79h-1.72Zm11.56,6.25a8.83,8.83,0,0,0,.38,2.75,5.82,5.82,0,0,0,1.15,2,5.41,5.41,0,0,0,1.72,1.28,6,6,0,0,0,2.17.44,4.41,4.41,0,0,0,2.11-.44,5,5,0,0,0,1.66-1.34l-.9-1a4.64,4.64,0,0,1-1.27,1,3.08,3.08,0,0,1-1.6.38,3.27,3.27,0,0,1-1.59-.38,3.76,3.76,0,0,1-1.22-1,5.35,5.35,0,0,1-.76-1.6,8.82,8.82,0,0,1,0-4.21,5.18,5.18,0,0,1,.76-1.59,3.67,3.67,0,0,1,1.22-1,3.46,3.46,0,0,1,1.59-.32,3.27,3.27,0,0,1,1.41.32,4.57,4.57,0,0,1,1.08.83l.89-1a6.16,6.16,0,0,0-1.4-1.08,3.9,3.9,0,0,0-2-.45,5.33,5.33,0,0,0-2.23.45,3.79,3.79,0,0,0-1.73,1.27A5.33,5.33,0,0,0,238.8,82,8.36,8.36,0,0,0,238.46,84.6ZM250,78.35V90.79h7.36V89.45H251.5V84.92h4.73V83.58H251.5V79.69h5.62V78.35Zm15.44,5.93V79.62h2.13a4.38,4.38,0,0,1,2.24.52,1.84,1.84,0,0,1,.76,1.72,2.06,2.06,0,0,1-.76,1.79,3.76,3.76,0,0,1-2.24.57h-2.1Zm5.24,6.51h1.78l-3.12-5.42a3.93,3.93,0,0,0,2-1.21,3.33,3.33,0,0,0,.76-2.3,4.13,4.13,0,0,0-.32-1.66,2.94,2.94,0,0,0-.89-1.09,4.18,4.18,0,0,0-1.4-.57,7.77,7.77,0,0,0-1.73-.19h-3.89V90.79h1.6V85.56h2.23Zm4.21-12.44V90.79h7.36V89.45h-5.8V84.92h4.72V83.58H276.4V79.69H282V78.35Zm10,0V90.79h1.59V85.88h2.24a5.31,5.31,0,0,0,1.85-.26,3.77,3.77,0,0,0,1.47-.7,3.06,3.06,0,0,0,.95-1.21,4.77,4.77,0,0,0,0-3.45,3.13,3.13,0,0,0-.89-1.15,4.45,4.45,0,0,0-1.47-.63,8.88,8.88,0,0,0-1.85-.2H284.8Zm3.63,6.25h-2v-5h2a4.87,4.87,0,0,1,2.43.52,2,2,0,0,1,.83,1.85,2.21,2.21,0,0,1-.77,1.91A4.2,4.2,0,0,1,288.43,84.6Zm11.69,1.15h-3.77l.57-1.91c.2-.7.45-1.41.64-2.11l.58-2.11h.06a21.42,21.42,0,0,0,.64,2.11c.19.7.38,1.41.64,2.11ZM300.5,87l1.15,3.76h1.66l-4.22-12.44h-1.78l-4.22,12.44h1.6L295.9,87Zm4.59-8.68V90.79h1.6V78.35Zm6.58,5.93V79.62h2.11a4.36,4.36,0,0,1,2.23.52,1.87,1.87,0,0,1,.77,1.72,2.1,2.1,0,0,1-.77,1.79,3.75,3.75,0,0,1-2.23.57h-2.11Zm5.23,6.51h1.79l-3.13-5.42a4,4,0,0,0,2.05-1.21,4.1,4.1,0,0,0,.44-4,2.94,2.94,0,0,0-.89-1.09,4.23,4.23,0,0,0-1.41-.57,7.62,7.62,0,0,0-1.72-.19h-3.89V90.79h1.59V85.56H314Zm4-2.68-1,1.09a6.57,6.57,0,0,0,1.92,1.34,6.11,6.11,0,0,0,2.42.51,5.18,5.18,0,0,0,1.79-.26,4.34,4.34,0,0,0,1.34-.76,3,3,0,0,0,.83-1.15,3.58,3.58,0,0,0,.32-1.4,3.84,3.84,0,0,0-.19-1.22,3.74,3.74,0,0,0-.51-.89,3.09,3.09,0,0,0-.83-.7,4.86,4.86,0,0,0-1-.51l-1.79-.77a4.31,4.31,0,0,1-.77-.32,5,5,0,0,1-.63-.38,1,1,0,0,1-.45-.58,1.27,1.27,0,0,1-.19-.76,1.48,1.48,0,0,1,.64-1.34,2.51,2.51,0,0,1,1.65-.51,4.19,4.19,0,0,1,1.6.32,5.3,5.3,0,0,1,1.28.83l.83-1a6.22,6.22,0,0,0-1.6-1.14,5.55,5.55,0,0,0-2-.45,4.36,4.36,0,0,0-1.6.25,3,3,0,0,0-1.21.71,4.08,4.08,0,0,0-.83,1,2.81,2.81,0,0,0-.25,1.34,3.33,3.33,0,0,0,.19,1.21,2.1,2.1,0,0,0,.57.89,3.92,3.92,0,0,0,.83.64,5.31,5.31,0,0,0,.89.45l1.79.77c.26.12.58.25.83.38a2.18,2.18,0,0,1,.64.45,1.33,1.33,0,0,1,.45.57,2.92,2.92,0,0,1,.12.83,1.8,1.8,0,0,1-.67,1.5,2.82,2.82,0,0,1-1.92.57,3.74,3.74,0,0,1-1.85-.44,4.39,4.39,0,0,1-1.62-1.06Z"/></svg>