<?xml version="1.0" encoding="utf-8"?>
<!-- Generator: Adobe Illustrator 26.3.0, SVG Export Plug-In . SVG Version: 6.00 Build 0)  -->
<svg version="1.1" id="Layer_1" xmlns="http://www.w3.org/2000/svg" xmlns:xlink="http://www.w3.org/1999/xlink" x="0px" y="0px"
	 viewBox="0 0 841.9 841.9" style="enable-background:new 0 0 841.9 841.9;" xml:space="preserve">
<style type="text/css">
	.st0{fill:#333333;fill-opacity:0;}
	.st1{fill:#88D119;}
	.st2{fill:#177FD3;}
	.st3{fill:#333333;}
</style>
<g>
	<rect x="346.7" y="274.9" class="st0" width="148.6" height="147.5"/>
	<path class="st1" d="M374.2,388.8v-2.3v-59.2c0-0.8,0.2-1.6,0.6-2.3c2.8-5.5,6.6-10.5,11.2-14.7c0.3-0.3,0.5-0.8,1-0.6
		c0.5,0.2,0.3,0.8,0.3,1.2V399c-0.1,1,0.4,1.9,1.3,2.4c3.8,2.3,7.7,4.2,11.8,5.7c1,0.3,1.2,0.2,1.2-0.8v-0.9V304.9
		c0-1.1,0-2.3-0.1-3.4c-0.1-0.7,0.4-1.3,1-1.5c3.5-1.3,7.2-2.3,10.9-2.9c0.9-0.1,1.1,0.1,1.1,1v122.5c0,1.9,0,1.9-1.8,1.7
		c-27.7-3.9-47.8-18.4-59.4-43.8c-8.5-18.5-8.8-37.7-1.3-56.7c8.3-21,23.4-35.3,44.5-43.1c5.2-1.9,10.7-3.1,16.2-3.7
		c1.4-0.1,1.8,0.2,1.7,1.6c-0.1,2.9-0.1,5.7,0,8.6c0.1,1.4-0.3,1.9-1.7,2.1c-9.1,1.1-17.8,4.3-25.4,9.3c-13.9,9.1-23,21.7-26.7,37.8
		c-4.5,19.5-0.3,37.3,11.9,53C373,388,373.6,388.5,374.2,388.8z"/>
	<path class="st2" d="M427.6,416.3v-4.9c0-0.8,0.2-1.2,1.1-1.3c13.1-1.5,25.3-7.2,34.8-16.4c13.5-12.9,20.4-28.8,19.4-47.4
		c-1.3-25.4-14.1-43.6-37.1-54.4c-5.4-2.5-11.2-4.1-17.2-4.7c-1-0.1-1.2-0.6-1.2-1.4c0-3.2,0.1-6.5,0-9.7c0.1-1,0.4-1.3,1.3-1.2
		c4.4,0.4,8.7,1.3,13,2.6c11.7,3.3,22.3,9.5,30.9,18c11.5,11.3,18.8,24.8,21.4,40.8c3.4,20.9-1.2,39.9-13.8,56.8
		c-12.1,16.2-28.4,25.7-48.4,28.9c-1,0.2-2,0.2-3,0.4c-1,0.2-1.4-0.1-1.4-1.2C427.6,419.5,427.6,417.9,427.6,416.3L427.6,416.3z"/>
	<path class="st2" d="M427.8,393.8v-5.1c0-0.8,0.3-1,1-1.2c16.4-3.8,27.1-13.8,30.8-30.2c3.5-15.5-1.4-28.9-13.6-39.3
		c-4.9-4.1-10.8-6.9-17.1-8.1c-1-0.2-1.2-0.6-1.2-1.5c0-3.2,0.1-6.4,0-9.6c-0.1-1.5,0.5-1.5,1.7-1.3c7,1.1,13.8,3.8,19.7,7.6
		c12.6,8.3,20.4,19.9,23.1,34.8c1.9,10.6,0.4,21.6-4.4,31.3c-3.8,7.9-9.5,14.7-16.6,19.8c-6.5,4.6-14,7.7-21.8,9
		c-1.2,0.2-1.7,0-1.6-1.4C427.9,397,427.8,395.5,427.8,393.8L427.8,393.8z"/>
</g>
<g transform="matrix(1,0,0,1,0,0)">
	<g transform="scale(1)">
		<g>
			<path class="st3" d="M312,462.5l-19.6,51.6l-23.8-51.6h-12.9l-22.4,51.7l-21.1-51.7h-10.5l27.3,69.4h8.6l24.5-57.3l25.9,57.3h8.5
				l26.2-69.4H312z M329.4,477v40.5c0,7.9,6.6,14.5,14.5,14.5h41.6c8,0,14.6-6.5,14.6-14.5V477c0-8-6.6-14.5-14.6-14.5h-41.6
				C335.9,462.5,329.4,469.1,329.4,477z M390.2,477v40.5c0,2.5-2.1,4.7-4.7,4.7h-41.6c-2.5,0-4.7-2.2-4.7-4.7V477
				c0-2.5,2.2-4.7,4.7-4.7h41.6C388,472.3,390.2,474.5,390.2,477z M411.1,477v54.9h9.8V477c0-2.5,2.1-4.7,4.7-4.7h39v-9.8h-39
				C417.7,462.5,411.1,469.1,411.1,477z M482.5,502.1h19.1l27.3,29.8h12.8l-31.4-34.7l31.5-34.7h-12.9l-27.3,29.8h-19.1v-52.6h-9.8
				v92.2h9.8V502.1z M559.8,522.1H550v9.8h9.8V522.1z M575.4,531.9h9.8v-69.4h-9.8V531.9z M575.4,439.8v9.8h9.8v-9.8H575.4z
				 M614.9,531.9h25.4v-9.8h-25.4c-2.5,0-4.7-2.2-4.7-4.7v-45.1h30.1v-9.8h-30.1v-22.8h-9.8v77.7
				C600.4,525.4,606.9,531.9,614.9,531.9z"/>
		</g>
	</g>
</g>
<g transform="matrix(1,0,0,1,37.959999084472656,43.22999954223633)">
	<g transform="scale(1, 1)">
		<g transform="scale(1)">
			<path class="st3" d="M268.5,515.5h-5.9l0.9-3c0.3-1.1,0.7-2.2,1-3.3c0.3-1.1,0.6-2.2,0.9-3.3h0.1c0.3,1.1,0.6,2.3,1,3.3
				c0.3,1.1,0.6,2.2,1,3.3L268.5,515.5z M269.2,517.5l1.8,5.9h2.6l-6.6-19.5h-2.8l-6.6,19.5h2.5l1.9-5.9H269.2z M276.4,503.9v19.5
				h2.5v-7.7h3.5c1.1,0,2.1-0.1,2.9-0.4c0.9-0.2,1.6-0.6,2.3-1.1s1.1-1.1,1.5-1.9c0.3-0.7,0.5-1.6,0.5-2.7c0-1.1-0.2-2-0.5-2.7
				c-0.3-0.7-0.8-1.3-1.4-1.8c-0.6-0.4-1.4-0.8-2.3-1s-1.9-0.3-2.9-0.3H276.4z M282.1,513.7h-3.2v-7.8h3.2c1.7,0,2.9,0.3,3.8,0.8
				c0.8,0.5,1.3,1.5,1.3,2.9c0,1.4-0.4,2.4-1.2,3C285.1,513.3,283.8,513.7,282.1,513.7z M293.5,503.9v19.5h2.5v-7.7h3.5
				c1.1,0,2.1-0.1,2.9-0.4c0.9-0.2,1.7-0.6,2.3-1.1c0.6-0.5,1.1-1.1,1.5-1.9c0.3-0.7,0.5-1.6,0.5-2.7c0-1.1-0.2-2-0.5-2.7
				c-0.3-0.7-0.8-1.3-1.5-1.8c-0.6-0.4-1.4-0.8-2.3-1s-1.9-0.3-2.9-0.3H293.5z M299.2,513.7H296v-7.8h3.2c1.7,0,2.9,0.3,3.8,0.8
				c0.8,0.5,1.2,1.5,1.2,2.9c0,1.4-0.4,2.4-1.2,3C302.2,513.3,300.9,513.7,299.2,513.7z M310.6,503.9v19.5h11v-2.1h-8.5v-17.4H310.6
				z M325.1,503.9v19.5h2.5v-19.5H325.1z M341.2,515.5h-5.9l0.9-3c0.3-1.1,0.7-2.2,1-3.3c0.3-1.1,0.6-2.2,0.9-3.3h0.1
				c0.3,1.1,0.6,2.3,1,3.3c0.3,1.1,0.6,2.2,1,3.3L341.2,515.5z M341.8,517.5l1.8,5.9h2.6l-6.6-19.5h-2.8l-6.6,19.5h2.5l1.9-5.9
				H341.8z M349.1,503.9v19.5h2.4v-10.2c0-1,0-2.1-0.1-3.1c0-1-0.1-2-0.2-3h0.1l2.1,4l7.1,12.3h2.6v-19.5h-2.4V514
				c0,1,0,2.1,0.1,3.1c0,1.1,0.1,2.1,0.2,3.1h-0.1l-2.1-4l-7-12.2H349.1z M367.2,513.7c0,1.6,0.2,3,0.6,4.3c0.4,1.2,1,2.3,1.8,3.2
				c0.8,0.9,1.7,1.5,2.7,2c1,0.4,2.2,0.7,3.4,0.7s2.4-0.2,3.3-0.7c1-0.5,1.9-1.2,2.6-2.1l-1.4-1.5c-0.6,0.7-1.3,1.2-2,1.6
				c-0.7,0.4-1.5,0.6-2.5,0.6c-0.9,0-1.8-0.2-2.5-0.6c-0.7-0.4-1.4-0.9-1.9-1.6c-0.5-0.7-0.9-1.5-1.2-2.5c-0.3-1-0.4-2.1-0.4-3.3
				c0-1.2,0.1-2.3,0.4-3.3c0.3-1,0.7-1.8,1.2-2.5c0.5-0.7,1.2-1.2,1.9-1.6c0.8-0.4,1.6-0.5,2.5-0.5c0.8,0,1.6,0.2,2.2,0.5
				c0.6,0.3,1.2,0.8,1.7,1.3l1.4-1.6c-0.6-0.6-1.3-1.2-2.2-1.7c-0.9-0.5-1.9-0.7-3.1-0.7c-1.2,0-2.4,0.2-3.5,0.7
				c-1.1,0.4-2,1.1-2.7,2c-0.8,0.9-1.4,1.9-1.8,3.2S367.2,512.1,367.2,513.7z M385.2,503.9v19.5h11.5v-2.1h-9.1v-7.1h7.4v-2.1h-7.4
				V506h8.8v-2.1H385.2z M409.4,513.2v-7.3h3.3c1.5,0,2.7,0.3,3.5,0.8c0.8,0.5,1.2,1.4,1.2,2.7c0,1.3-0.4,2.2-1.2,2.8
				c-0.8,0.6-2,0.9-3.5,0.9H409.4z M417.6,523.4h2.8l-4.9-8.5c1.3-0.3,2.4-1,3.2-1.9c0.8-0.9,1.2-2.1,1.2-3.6c0-1-0.2-1.9-0.5-2.6
				c-0.3-0.7-0.8-1.2-1.4-1.7c-0.6-0.4-1.3-0.7-2.2-0.9c-0.8-0.2-1.8-0.3-2.7-0.3h-6.1v19.5h2.5v-8.2h3.5L417.6,523.4z M424.2,503.9
				v19.5h11.5v-2.1h-9.1v-7.1h7.4v-2.1h-7.4V506h8.8v-2.1H424.2z M439.8,503.9v19.5h2.5v-7.7h3.5c1.1,0,2.1-0.1,2.9-0.4
				c0.9-0.2,1.6-0.6,2.3-1.1s1.1-1.1,1.5-1.9c0.3-0.7,0.5-1.6,0.5-2.7c0-1.1-0.2-2-0.5-2.7c-0.3-0.7-0.8-1.3-1.4-1.8
				c-0.6-0.4-1.4-0.8-2.3-1s-1.9-0.3-2.9-0.3H439.8z M445.5,513.7h-3.2v-7.8h3.2c1.7,0,2.9,0.3,3.8,0.8c0.8,0.5,1.3,1.5,1.3,2.9
				c0,1.4-0.4,2.4-1.2,3S447.2,513.7,445.5,513.7z M463.8,515.5h-5.9l0.9-3c0.3-1.1,0.7-2.2,1-3.3c0.3-1.1,0.6-2.2,0.9-3.3h0.1
				c0.3,1.1,0.6,2.3,1,3.3c0.3,1.1,0.6,2.2,1,3.3L463.8,515.5z M464.4,517.5l1.8,5.9h2.6l-6.6-19.5h-2.8l-6.6,19.5h2.5l1.9-5.9
				H464.4z M471.6,503.9v19.5h2.5v-19.5H471.6z M481.9,513.2v-7.3h3.3c1.5,0,2.7,0.3,3.5,0.8c0.8,0.5,1.2,1.4,1.2,2.7
				c0,1.3-0.4,2.2-1.2,2.8c-0.8,0.6-2,0.9-3.5,0.9H481.9z M490.1,523.4h2.8l-4.9-8.5c1.3-0.3,2.4-1,3.2-1.9c0.8-0.9,1.2-2.1,1.2-3.6
				c0-1-0.1-1.9-0.5-2.6c-0.3-0.7-0.8-1.2-1.4-1.7c-0.6-0.4-1.3-0.7-2.2-0.9c-0.8-0.2-1.8-0.3-2.7-0.3h-6.1v19.5h2.5v-8.2h3.5
				L490.1,523.4z M496.3,519.2l-1.5,1.7c0.9,0.9,1.9,1.6,3,2.1c1.2,0.5,2.4,0.8,3.8,0.8c1,0,2-0.1,2.8-0.4c0.8-0.3,1.5-0.7,2.1-1.2
				c0.6-0.5,1-1.1,1.3-1.8c0.3-0.7,0.5-1.4,0.5-2.2c0-0.7-0.1-1.3-0.3-1.9c-0.2-0.5-0.5-1-0.8-1.4c-0.3-0.4-0.8-0.8-1.3-1.1
				c-0.5-0.3-1-0.6-1.6-0.8l-2.8-1.2c-0.4-0.1-0.8-0.3-1.2-0.5c-0.4-0.2-0.7-0.4-1-0.6c-0.3-0.2-0.6-0.5-0.7-0.9
				c-0.2-0.3-0.3-0.7-0.3-1.2c0-0.9,0.3-1.6,1-2.1c0.6-0.5,1.5-0.8,2.6-0.8c0.9,0,1.7,0.2,2.5,0.5c0.7,0.3,1.4,0.8,2,1.3l1.3-1.6
				c-0.7-0.7-1.5-1.3-2.5-1.8c-1-0.4-2.1-0.7-3.2-0.7c-0.9,0-1.7,0.1-2.5,0.4c-0.7,0.2-1.4,0.6-1.9,1.1c-0.5,0.5-1,1-1.3,1.6
				c-0.3,0.6-0.4,1.3-0.4,2.1s0.1,1.3,0.3,1.9s0.5,1,0.9,1.4c0.4,0.4,0.8,0.7,1.3,1c0.5,0.3,0.9,0.5,1.4,0.7l2.8,1.2
				c0.4,0.2,0.9,0.4,1.3,0.6c0.4,0.2,0.7,0.4,1,0.7c0.3,0.2,0.5,0.5,0.7,0.9c0.1,0.3,0.2,0.8,0.2,1.3c0,1-0.4,1.7-1.1,2.3
				c-0.7,0.6-1.7,0.9-3,0.9c-1,0-2-0.2-2.9-0.7C497.9,520.5,497,519.9,496.3,519.2z"/>
		</g>
	</g>
</g>
</svg>
