<?xml version="1.0" encoding="utf-8"?>
<!-- Generator: Adobe Illustrator 26.3.0, SVG Export Plug-In . SVG Version: 6.00 Build 0)  -->
<svg version="1.1" id="Capa_1" xmlns="http://www.w3.org/2000/svg" xmlns:xlink="http://www.w3.org/1999/xlink" x="0px" y="0px"
	 viewBox="0 0 459.8 459.8" style="enable-background:new 0 0 459.8 459.8;" xml:space="preserve">
<style type="text/css">
	.st0{fill:#2F2523;}
</style>
<g>
	<path class="st0" d="M444.8,166.5c10.9-15.1,16.2-33.6,14.7-52.1s-9.5-36-22.7-49.2c-14.8-14.8-34.4-22.9-55.3-22.9
		c-20.9,0-40.5,8.1-55.3,22.9C313,78.4,305,95.8,303.5,114.4c-0.7,8.8,0.1,17.5,2.3,25.9c-25.6-6.9-52.7-10.4-80.6-10.4
		c-8.4,0-16.7,0.3-25,1c7.6-13.5,11.1-29,9.9-44.5c-1.5-18.6-9.5-36-22.7-49.2c-14.8-14.8-34.4-22.9-55.3-22.9s-40.5,8.1-55.3,22.9
		C61.9,51.9,53.8,71.5,53.8,92.5c0,16.6,5.2,32.5,15,46l18,24.7c-24.9,13.6-45.7,30.9-60.5,50.5C9.1,236.3,0,261.9,0,287.7
		c0,42.7,23.8,82.6,67,112.5c42.4,29.3,98.5,45.4,158.2,45.4c61.6,0,119.1-17,161.9-47.9c3.4-2.4,4.1-7.1,1.7-10.5
		s-7.1-4.1-10.5-1.7c-40.2,29.1-94.6,45.1-153.1,45.1C109.3,430.6,15,366.5,15,287.7c0-22.9,7.8-44.8,23.1-65
		c13.8-18.3,33.6-34.5,57.5-47.3l14,19.2c-10.8,13.3-17.3,29.6-18.7,46.8c-1.6,20.1,4.1,40.2,16,56.6l54,74.3h-10.1
		c-4.1,0-7.5,3.4-7.5,7.5s3.4,7.5,7.5,7.5h49.6c4.1,0,7.5-3.4,7.5-7.5s-3.4-7.5-7.5-7.5h-10.1l54-74.3c11.9-16.3,17.5-36.4,16-56.6
		c-1.6-20.1-10.3-39.1-24.6-53.4c-16.1-16.1-37.1-24.3-58.2-24.8l11.8-16.2c11.8-1.4,24-2.1,36.1-2.1c30.6,0,60,4.4,87.6,13
		c1.6,3,3.4,5.9,5.4,8.6l48.6,66.8h-10.1c-4.1,0-7.5,3.4-7.5,7.5s3.4,7.5,7.5,7.5h49.6c4.1,0,7.5-3.4,7.5-7.5s-3.4-7.5-7.5-7.5
		h-10.1l11.7-16.1c18,21.4,27.5,45.6,27.5,70.5c0,22.2-7.3,43.4-21.8,63.2c-2.4,3.3-1.7,8,1.6,10.5c1.3,1,2.9,1.4,4.4,1.4
		c2.3,0,4.6-1.1,6.1-3.1c16.1-22.1,24.7-47,24.7-72.1c0-29.5-11.5-58.1-33.4-82.9L444.8,166.5z M68.8,92.5
		c0-16.9,6.6-32.8,18.5-44.7c11.9-11.9,27.8-18.5,44.7-18.5s32.8,6.6,44.7,18.5c22.1,22.1,24.8,56.6,6.4,81.9l-25.8,35.5
		c-13.4,2.9-26.3,9.1-37.2,18.6l-39.3-54.1C73,118.7,68.8,105.9,68.8,92.5z M245.2,242.5c1.3,16.6-3.4,33.1-13.1,46.6l-56.6,77.8
		L119,289.1c-9.8-13.5-14.4-30-13.1-46.6c1.3-16.6,8.5-32.2,20.3-44c13.6-13.6,31.5-20.4,49.4-20.4c17.9,0,35.8,6.8,49.4,20.4
		C236.7,210.3,243.9,226,245.2,242.5z M336.8,75.8c11.9-11.9,27.8-18.5,44.7-18.5c16.9,0,32.8,6.6,44.7,18.5
		c22.1,22.1,24.8,56.6,6.4,81.9l-51.2,70.4l-51.2-70.4C312,132.4,314.7,98,336.8,75.8z"/>
	<path class="st0" d="M428.5,120.5c0-4.1-3.4-7.5-7.5-7.5s-7.5,3.4-7.5,7.5c0,17.6-14.3,31.9-31.9,31.9c-17.6,0-31.9-14.3-31.9-31.9
		c0-17.6,14.3-31.9,31.9-31.9c4.4,0,8.7,0.9,12.8,2.7c3.8,1.7,8.2-0.1,9.9-3.9c1.7-3.8-0.1-8.2-3.9-9.9c-5.9-2.6-12.3-3.9-18.8-3.9
		c-25.9,0-46.9,21.1-46.9,46.9c0,25.9,21.1,46.9,46.9,46.9C407.4,167.5,428.5,146.4,428.5,120.5z"/>
	<path class="st0" d="M406.4,102.8c0.4,0.9,0.9,1.8,1.6,2.4c2.7,2.8,7.2,2.9,10.1,0.4c3.3-2.8,3.5-7.9,0.5-11
		c-2.5-2.4-6.3-2.9-9.3-1C406.2,95.5,405,99.5,406.4,102.8C406.6,103.2,406.2,102.3,406.4,102.8z"/>
	<path class="st0" d="M124.9,248c0,27.9,22.7,50.6,50.6,50.6s50.7-22.7,50.7-50.6s-22.7-50.6-50.6-50.6S124.9,220.1,124.9,248z
		 M211.2,248c0,19.7-16,35.6-35.6,35.6s-35.6-16-35.6-35.6s16-35.6,35.6-35.6S211.2,228.4,211.2,248z"/>
	<path class="st0" d="M132,138c24.6,0,44.6-20,44.6-44.6s-20-44.6-44.6-44.6s-44.6,20-44.6,44.6S107.4,138,132,138z M132,63.8
		c16.3,0,29.6,13.3,29.6,29.6S148.3,123,132,123s-29.6-13.3-29.6-29.6S115.7,63.8,132,63.8z"/>
	<path class="st0" d="M407.6,369.3c-2.8-1.9-6.7-1.6-9.2,0.7c-2.2,2-3,5.2-2,7.9c1,3,3.9,5.1,7.1,5.1c3.2,0,6.1-2.1,7.1-5.1
		C411.6,374.8,410.4,371.1,407.6,369.3C407.2,369,408,369.6,407.6,369.3z"/>
</g>
</svg>
