<?xml version="1.0" encoding="utf-8"?>
<!-- Generator: Adobe Illustrator 26.3.0, SVG Export Plug-In . SVG Version: 6.00 Build 0)  -->
<svg version="1.1" id="Warstwa_1" xmlns="http://www.w3.org/2000/svg" xmlns:xlink="http://www.w3.org/1999/xlink" x="0px" y="0px"
	 viewBox="0 0 100 100" style="enable-background:new 0 0 100 100;" xml:space="preserve">
<style type="text/css">
	.st0{fill:#000000;}
	.st1{display:none;fill:#A3B8C8;}
</style>
<g>
	<path class="st0" d="M34.3,10c-0.2-0.2-0.5-0.4-0.8-0.4s-0.6,0.1-0.8,0.3l-3.4,2.9l-0.1-0.3c-0.7-1.4-2.1-2.3-3.6-2.3h-13
		c-2.2,0-4,1.8-4,4v13c0,2.2,1.8,4,4,4h13c2.2,0,4-1.8,4-4V15.5l4.6-4c0.2-0.2,0.4-0.5,0.4-0.8C34.5,10.5,34.4,10.2,34.3,10z
		 M27.4,14.5L27.4,14.5L19,21.8l-3-4.2c-0.2-0.2-0.4-0.4-0.7-0.5c-0.3,0-0.6,0-0.8,0.2S14.1,17.7,14,18c-0.1,0.3,0,0.6,0.2,0.8
		l3.6,5.2c0.2,0.3,0.5,0.4,0.8,0.5s0.6-0.1,0.8-0.3l8-6.8v9.9c0,1-0.8,1.9-1.9,1.9h-13c-1,0-1.8-0.8-1.8-1.9v-13
		c0-1,0.8-1.9,1.8-1.9h13c1,0,1.9,0.8,1.9,1.9C27.4,14.3,27.4,14.5,27.4,14.5z"/>
	<path class="st1" d="M14.1,18c-0.1,0.3,0,0.6,0.2,0.8l3.6,5.2c0.2,0.3,0.5,0.4,0.8,0.5s0.6-0.1,0.8-0.3l8-6.8v9.9
		c0,1-0.8,1.9-1.9,1.9h-13c-1,0-1.8-0.8-1.8-1.9v-13c0-1,0.8-1.9,1.8-1.9h13c1,0,1.9,0.8,1.9,1.9v0.3l-0.1,0.1l-8.3,7.2L16,17.6
		c-0.2-0.2-0.4-0.4-0.7-0.5c-0.3,0-0.6,0-0.8,0.2C14.3,17.4,14.1,17.7,14.1,18z"/>
	<path class="st0" d="M34.3,40.4c-0.2-0.2-0.5-0.4-0.8-0.4s-0.6,0.1-0.8,0.3l-3.4,2.9l-0.1-0.3c-0.7-1.4-2.1-2.3-3.6-2.3h-13
		c-2.2,0-4,1.8-4,4v13c0,2.2,1.8,4,4,4h13c2.2,0,4-1.8,4-4V45.9l4.6-4c0.2-0.2,0.4-0.5,0.4-0.8C34.5,40.9,34.4,40.6,34.3,40.4z
		 M27.4,44.9L27.4,44.9L19,52.2l-3-4.3c-0.2-0.2-0.4-0.4-0.7-0.5s-0.6,0-0.8,0.2S14.1,48,14,48.3s0,0.6,0.2,0.8l3.6,5.2
		c0.2,0.3,0.5,0.4,0.8,0.5s0.6-0.1,0.8-0.2l8-6.8v9.9c0,1-0.8,1.8-1.9,1.8h-13c-1,0-1.8-0.8-1.8-1.8v-13c0-1,0.8-1.8,1.8-1.8h13
		c1,0,1.9,0.8,1.9,1.8C27.4,44.7,27.4,44.9,27.4,44.9z"/>
	<path class="st1" d="M14.1,48.3c-0.1,0.3,0,0.6,0.2,0.8l3.6,5.2c0.2,0.3,0.5,0.4,0.8,0.5s0.6-0.1,0.8-0.2l8-6.8v9.9
		c0,1-0.8,1.8-1.9,1.8h-13c-1,0-1.8-0.8-1.8-1.8v-13c0-1,0.8-1.8,1.8-1.8h13c1,0,1.9,0.8,1.9,1.8V45l-0.1,0.1l-8.3,7.2L16,47.9
		c-0.2-0.2-0.4-0.4-0.7-0.5s-0.6,0-0.8,0.2C14.3,47.8,14.1,48,14.1,48.3z"/>
	<path class="st0" d="M91.6,64.9c0-9.3-7.6-16.9-17-16.9h-1.2v-5.4l0.1-0.1c4.3-4.1,6.6-10.7,6.6-19.2C80.1,14.9,73.2,8,64.7,8
		s-15.3,6.9-15.3,15.3c0,0.2,0,0.4,0,0.6v0.4l0,0v0.1c0.2,8,2.4,14.2,6.5,18.1l0.1,0.1V48h-1.2c-9.3,0-16.9,7.6-16.9,16.9v26
		c0,0.6,0.5,1.1,1.1,1.1h51.4c0.6,0,1.1-0.5,1.1-1.1v-26H91.6z M74.6,50.2c0.5,0,0.9,0,1.4,0.1h0.4l-3.7,9.9L66.5,56l6.3-5.9h1.8
		V50.2z M64.7,54.7l-6.5-6.1v-4.3l0.4,0.2c1.8,1.1,3.8,1.8,5.9,2.1c0.1,0,0.2,0,0.3,0c2.1-0.3,4.1-1,5.9-2.1l0.4-0.2v4.3L64.7,54.7z
		 M51.6,23.1c0.1-7.1,6-12.9,13.1-12.9s12.9,5.6,13.1,12.7v0.3l-0.3-0.1c-3.9-0.6-7.1-2.8-9.8-6.5c-0.2-0.3-0.5-0.4-0.8-0.5
		c-0.4,0-0.7,0.1-0.9,0.4c-5.3,5.9-10.2,6.8-13.9,6.8c-0.1,0-0.2,0-0.3,0h-0.3L51.6,23.1z M51.7,25.8v-0.3h0.5
		c3.5,0,8.8-0.7,14.4-6.3l0.2-0.2l0.2,0.2c2.9,3.5,6.5,5.5,10.6,6.1h0.2v0.3c-0.4,6.4-2.6,17.3-13,18.8l0,0l0,0
		C54.4,42.9,52.1,32.1,51.7,25.8z M53.4,50.2c0.5,0,1-0.1,1.4-0.1h1.9L63,56l-6.2,4.2l-3.7-9.9L53.4,50.2z M89.4,89.8H79.3V74.1
		c0-0.6-0.5-1.1-1.1-1.1s-1.1,0.5-1.1,1.1v15.8H52.4V74.1c0-0.6-0.5-1.1-1.1-1.1s-1.1,0.5-1.1,1.1v15.8H40.1v-25
		c0-6.5,4.3-12.3,10.5-14.1l0.2-0.1l4.3,11.6c0.1,0.3,0.4,0.6,0.7,0.7c0.3,0.1,0.7,0,0.9-0.1l7.9-5.3l0.2,0.1l7.7,5.2
		c0.3,0.2,0.6,0.2,0.9,0.1c0.3-0.1,0.6-0.3,0.7-0.7l4.4-11.6l0.2,0.1c6.2,1.9,10.5,7.7,10.5,14.1v24.9H89.4z"/>
	<path class="st0" d="M34.3,70.7c-0.2-0.2-0.5-0.4-0.8-0.4s-0.6,0.1-0.8,0.3l-3.4,2.9l-0.1-0.3c-0.7-1.4-2.1-2.3-3.6-2.3h-13
		c-2.2,0-4,1.8-4,4v13c0,2.2,1.8,4,4,4h13c2.2,0,4-1.8,4-4V76.2l4.6-4C34.6,71.9,34.6,71.2,34.3,70.7z M27.4,75.2L27.4,75.2L19,82.5
		l-3-4.2c-0.2-0.2-0.4-0.4-0.7-0.5s-0.6,0-0.8,0.2s-0.4,0.4-0.5,0.7c-0.1,0.3,0,0.6,0.2,0.8l3.6,5.2c0.2,0.3,0.5,0.4,0.8,0.5
		c0.3,0,0.6-0.1,0.8-0.2l8-6.8V88c0,1-0.8,1.8-1.9,1.8h-13c-1,0-1.8-0.8-1.8-1.8V75c0-1,0.8-1.9,1.8-1.9h13c1,0,1.9,0.8,1.9,1.9
		C27.4,75,27.4,75.2,27.4,75.2z"/>
	<path class="st1" d="M14.1,78.7c-0.1,0.3,0,0.6,0.2,0.8l3.6,5.2c0.2,0.3,0.5,0.4,0.8,0.5c0.3,0,0.6-0.1,0.8-0.2l8-6.8V88
		c0,1-0.8,1.8-1.9,1.8h-13c-1,0-1.8-0.8-1.8-1.8V75c0-1,0.8-1.9,1.8-1.9h13c1,0,1.9,0.8,1.9,1.9v0.3l-0.1,0.1l-8.3,7.2L16,78.3
		c-0.2-0.2-0.4-0.4-0.7-0.5s-0.6,0-0.8,0.2S14.1,78.4,14.1,78.7z"/>
</g>
</svg>
