<?xml version="1.0" encoding="utf-8"?>
<!-- Svg Vector Icons : http://www.onlinewebfonts.com/icon -->
<!DOCTYPE svg PUBLIC "-//W3C//DTD SVG 1.1//EN" "http://www.w3.org/Graphics/SVG/1.1/DTD/svg11.dtd">
<svg version="1.1" xmlns="http://www.w3.org/2000/svg" xmlns:xlink="http://www.w3.org/1999/xlink" x="0px" y="0px" viewBox="0 0 256 256" enable-background="new 0 0 256 256" xml:space="preserve">
<metadata> Svg Vector Icons : http://www.onlinewebfonts.com/icon </metadata>
<g><g><g><path fill="#000000" d="M51.8,10.2c-6.4,1.3-12.6,3.2-16,5C27.2,19.4,16.2,36.5,12,51.9c-1.4,5.2-2.4,15.8-1.9,19.7c0.6,5,3.6,17.5,4.9,20.6c0.7,1.7,3,7.9,5.2,13.8c6.7,18.5,10.9,27.2,19.9,40.6c13.1,19.6,35,42.9,56.7,60.3c13.1,10.5,31.3,21.3,45.2,26.7c8.6,3.3,25.2,9.1,30.2,10.5c13.6,3.7,25.3,3.5,37.5-0.5c9.6-3.2,20.5-9.6,27.1-15.7c4-3.8,6.1-7.6,8.1-14.7c1.1-3.9,1.2-5.2,1.2-13.1v-8.7l-1.7-1.3c-1-0.7-4.8-2.9-8.5-4.9c-11.1-5.9-28.5-15.9-33.1-19.1c-5.9-4-9.5-5.8-11.5-5.8c-4.3,0-10.4,5.2-19.1,16.2c-5.6,7.1-10.6,12.2-13.1,13.4c-3.6,1.7-6.6,0.9-14.6-3.8c-1.5-0.9-5.4-3.2-8.8-5.2c-23.9-14.1-42.7-32.6-57.1-55.9c-1.9-3.1-5-8.2-6.8-11.1c-3.4-5.5-5.4-10.1-5.5-12.9c-0.1-3.3,6.3-10.6,15.2-17.2c10.4-7.8,15.9-14.5,15.1-18.7c-0.4-2.4-2.1-5.6-5.4-10.5c-1.5-2.2-3.2-4.9-3.7-6c-0.6-1.1-2.1-3.6-3.2-5.5c-1.2-1.9-4.9-8.4-8.1-14.5C66,10.1,65.2,9.1,59.4,9.2C57.7,9.2,54.3,9.7,51.8,10.2z"/></g></g></g>
</svg>