<svg id="Layer_1" data-name="Layer 1" xmlns="http://www.w3.org/2000/svg" viewBox="0 0 675.24 941.42"><defs><style>.cls-1{fill:#000;}</style></defs><path d="M621.24,941.42H54a7.5,7.5,0,0,1-7.5-7.51V559.32a7.51,7.51,0,0,1,15,0V926.41H613.73V559.32a7.51,7.51,0,0,1,15,0V933.91A7.5,7.5,0,0,1,621.24,941.42Z"/><path d="M411.11,495.51l-6.67-69.93-1.56-16.33q-7.19,2.38-14.66,4.28h0l1.54,16.11,6.39,66.93a58.6,58.6,0,0,1-58.52,58.18c-32.25,0-58.49-26.23-58.55-57.76v-.05l6.47-67.81L287.08,413q-7.5-2-14.67-4.35L270.86,425l-6.77,71.22a73.53,73.53,0,0,0,147.05,1.07h0c0-.35,0-.71,0-1.06S411.13,495.75,411.11,495.51Zm-46.37-87.46v-8.51a175.92,175.92,0,0,0,26.34-5.66l.05,0c.84-.24,1.69-.5,2.53-.77h0a7.55,7.55,0,0,1,.83,0H311.74v15Zm25,21.58h0l6.39,66.93v-.35Z"/><path d="M272.41,408.64,270.86,425l-6.77,71.22a58.52,58.52,0,0,1-117,1.58l40.82-89.75h82.8A202.3,202.3,0,0,1,237,393h-54a7.51,7.51,0,0,0-6.83,4.4l-43.51,95.68a7.52,7.52,0,0,0-.67,3.1,73.59,73.59,0,0,0,139.61,32.46A71.47,71.47,0,0,0,279.07,497v-.05l6.47-67.81L287.08,413Q279.58,411,272.41,408.64Z"/><path d="M73.53,569.76A73.61,73.61,0,0,1,0,496.23a7.53,7.53,0,0,1,2-5.07l87.78-95.68A7.48,7.48,0,0,1,95.28,393h87.78a7.5,7.5,0,0,1,6.83,10.61L147,497.89A73.63,73.63,0,0,1,73.53,569.76ZM15.07,499.07a58.52,58.52,0,0,0,117-2.84,7.6,7.6,0,0,1,.67-3.11l38.69-85.07H98.58Z"/><path d="M542.53,493.12,499,397.44a7.5,7.5,0,0,0-6.83-4.4h-52.8a198.13,198.13,0,0,1-33,15h80.95l40.8,89.76a58.58,58.58,0,0,1-58.5,56.94c-31.69,0-57.57-25.32-58.53-57.46h0q0-.88,0-1.77l-6.67-69.93-1.56-16.33q-7.19,2.38-14.66,4.28l1.55,16.1,6.37,66.59v.35a73.53,73.53,0,0,0,147.06-.35A7.36,7.36,0,0,0,542.53,493.12Zm-151.4-99.26c.84-.24,1.69-.5,2.53-.77A7.16,7.16,0,0,0,391.13,393.86Z"/><path d="M601.72,569.76a73.62,73.62,0,0,1-73.51-71.87l-42.85-94.24A7.49,7.49,0,0,1,492.18,393H580a7.51,7.51,0,0,1,5.53,2.44l87.77,95.68a7.44,7.44,0,0,1,2,5.07A73.61,73.61,0,0,1,601.72,569.76ZM503.84,408.05l38.68,85.07a7.44,7.44,0,0,1,.67,3.11,58.52,58.52,0,0,0,117,2.84l-83.51-91Z"/><path d="M331,870.59H124.56a7.5,7.5,0,0,1-7.5-7.5V645.43a7.51,7.51,0,0,1,7.5-7.51H331a7.51,7.51,0,0,1,7.5,7.51V863.1A7.49,7.49,0,0,1,331,870.59Zm-198.92-15H323.48V652.93H132.06Z"/><path d="M550.68,941.42H398.21a7.5,7.5,0,0,1-7.5-7.51V645.43a7.5,7.5,0,0,1,7.5-7.51H550.68a7.51,7.51,0,0,1,7.51,7.51V933.91A7.51,7.51,0,0,1,550.68,941.42Zm-145-15H543.18V652.93H405.72Z"/><path d="M448,797.17H398.21a7.51,7.51,0,0,1,0-15H448a7.51,7.51,0,0,1,0,15Z"/><path d="M167.66,720.27a7.5,7.5,0,0,1-5.3-12.8l24.24-24.24a7.5,7.5,0,0,1,10.61,10.61L173,718.08A7.47,7.47,0,0,1,167.66,720.27Z"/><path d="M176.79,771.07a7.51,7.51,0,0,1-5.3-12.81l65.9-65.9A7.5,7.5,0,1,1,248,703l-65.89,65.9A7.52,7.52,0,0,1,176.79,771.07Z"/><path d="M187.88,408.05h82.81A202.3,202.3,0,0,1,237,393h-54a7.49,7.49,0,0,1,6.82,10.61Zm123.86-15v15h53v-8.51a175.92,175.92,0,0,0,26.34-5.66l.05,0c.84-.24,1.69-.5,2.53-.77h0a7.73,7.73,0,0,1,.84,0Zm-77.58-58.86v15h16v-15Zm77.58,0v15h16v-15Zm103.21,0a140.14,140.14,0,0,1-30.32,15H421.2q3.76-2.37,7.37-4.95a150.75,150.75,0,0,0,12.7-10.06ZM237,393H102.78V349.19h9.62v-15H95.28a7.5,7.5,0,0,0-7.51,7.5v58.86a7.51,7.51,0,0,0,7.51,7.51H270.69A202.3,202.3,0,0,1,237,393Zm-64-58.86h-31v15h42.35Q178.44,342,173,334.18ZM311.74,393v15h53v-8.51a175.92,175.92,0,0,0,26.34-5.66l.05,0c.84-.24,1.69-.5,2.53-.77h0a7.73,7.73,0,0,1,.84,0ZM580,334.18H503.55c-1.1,1.56-2.24,3.12-3.4,4.67q-4,5.34-8.25,10.34h80.56V393H439.39a198.13,198.13,0,0,1-33,15H580a7.51,7.51,0,0,0,7.51-7.51V341.68A7.5,7.5,0,0,0,580,334.18Zm-121.07,0q-2.75,2.83-5.67,5.61-5.13,4.95-10.67,9.4h24q7.49-7.32,14-15Zm-93.55.48,1.83-.48H349.33l0,11.69c0,1.11,0,2.21.05,3.32h16c0-.87,0-1.74-.05-2.61Zm-90.44-.48v15h16v-15Zm-79.1,0a18.2,18.2,0,0,0,5.91,4.47L213.13,344v-9.86Z"/><path d="M667.74,503.73H7.5a7.5,7.5,0,0,1,0-15H667.74a7.5,7.5,0,0,1,0,15Z"/><path class="cls-1" d="M324.44,65.52c-2.33-2.07-5.36-2.83-9.08-2.25a176,176,0,0,0-32.09,8.4,11.8,11.8,0,0,0-8.54,12.4c.17,3,.17,6,.17,9.13V373a185,185,0,0,1-24.74-12.5V110.15l0-.14c.79-7.06-3.57-9.81-5.48-10.66s-7.12-2.35-11.78,3.36l0,.05a153.29,153.29,0,0,0-33.27,43.63,21.81,21.81,0,0,0-2.48,10.28V308.59c-25.65-39.5-33.21-83.12-22.47-129.91,9.85-42.94,34.22-77.4,72.46-102.41A160.41,160.41,0,0,1,315.69,51c8.07-.94,12.34-6,12-14.15-.3-7.26-.29-15.06,0-23.87,0-1.57.18-6.35-3.42-9.75s-8.42-3-10.22-2.87h-.16a207.57,207.57,0,0,0-48,10.92c-63,23.1-107.14,65.84-131.19,127-22.33,56.82-21,113.13,3.92,167.34a256.84,256.84,0,0,0,15.28,28.5q4.81,7.8,10.14,15A206.24,206.24,0,0,0,207.45,393a202.28,202.28,0,0,0,23.42,15,220.5,220.5,0,0,0,40,16.95q7.18,2.28,14.68,4.13a271.6,271.6,0,0,0,28,5.43,29.44,29.44,0,0,0,4.11.38,9.72,9.72,0,0,0,6.67-2.31c3.44-3,3.44-6.89,3.44-10.68V74C327.83,70.4,326.72,67.54,324.44,65.52Zm-12.7,352.59A249.41,249.41,0,0,1,287.08,413q-7.5-2-14.67-4.35l-1.72-.59A202.3,202.3,0,0,1,237,393a188.43,188.43,0,0,1-52.61-43.85q-6-7.15-11.4-15A233.51,233.51,0,0,1,153.13,299c-23-50.11-24.23-102.19-3.56-154.81,22.3-56.74,63.29-96.39,121.74-117.83a191.71,191.71,0,0,1,40.27-9.59c-.15,6.67-.14,12.82.05,18.65a176.63,176.63,0,0,0-73.29,27.47c-41.8,27.35-68.47,65.1-79.28,112.22-13.12,57.16-1.29,110,35.18,157a17.52,17.52,0,0,0,1.56,2.07,18.2,18.2,0,0,0,5.91,4.47L213.13,344V156.58a6,6,0,0,1,.7-2.86,137.59,137.59,0,0,1,20.33-29.57V360.26a14.94,14.94,0,0,0,8,14.09A201.24,201.24,0,0,0,277,391c4.12,1.45,7.6,1.11,10.33-1s3.84-5.09,3.6-9.07V93.2c0-2.36,0-4.78-.08-7.24a159.53,159.53,0,0,1,20.92-5.76ZM184.42,349.19H164A206.24,206.24,0,0,0,207.45,393H237A188.43,188.43,0,0,1,184.42,349.19Z"/><path class="cls-1" d="M388.22,413.53h0l1.54,16.11h0ZM553.74,181c-7.43-46-28.66-86.43-63.1-120.31A215,215,0,0,0,399.39,7.6,212.12,212.12,0,0,0,361,.08l-.18,0c-1.35-.1-5.48-.43-8.8,2.47s-3.57,7.05-3.64,8.41l0,.32v.32c.15,6,.1,12.18.05,18.15,0,3.07-.06,6.14-.06,9.22-.06,6.72,3.81,11.21,10.36,12l.14,0a145.71,145.71,0,0,1,46.24,12.63c63.25,29.75,97.16,79.49,100.79,147.83,2.52,46.85-13.27,88.11-47,122.76q-2.75,2.83-5.67,5.61-5.13,4.95-10.67,9.4A162.72,162.72,0,0,1,359,384.13h-.14c-5.42.71-9,4-9.9,8.9a14.58,14.58,0,0,0-.24,2.7v13.81c0,1.69,0,3.39,0,5.09,0,2.79.05,5.67,0,8.46-.18,4.87,1.81,7.68,3.52,9.18a10.47,10.47,0,0,0,7.11,2.53,14.66,14.66,0,0,0,2.62-.24c1.23-.21,2.58-.35,4-.5s2.84-.3,4.33-.54q9.92-1.59,19.39-3.89h0q7.47-1.8,14.67-4.05a215.74,215.74,0,0,0,41-17.53,204.56,204.56,0,0,0,23.16-15,219.73,219.73,0,0,0,43.79-43.85c.19-.24.38-.48.56-.73q5.28-7.05,9.93-14.28C552.4,288.32,562.77,236.87,553.74,181ZM503.55,334.18c-1.1,1.56-2.24,3.12-3.4,4.67q-4,5.34-8.25,10.34a195.58,195.58,0,0,1-85.48,58.86q-1.76.61-3.54,1.2-7.19,2.38-14.66,4.28h0q-9.93,2.52-20.38,4.2c-.93.15-1.95.27-3,.38,0-1.22,0-2.42,0-3.61q0-2.49,0-4.95v-10a175.92,175.92,0,0,0,26.34-5.66l.05,0c.84-.24,1.69-.5,2.53-.77h0a.39.39,0,0,0,.14,0,178.46,178.46,0,0,0,70.47-41.69l2.24-2.16q7.49-7.32,14-15c30-35.55,43.91-77,41.4-123.62-2-37.22-12.4-69.83-31-96.92C472.56,86.83,446,65.12,411.88,49.08a162,162,0,0,0-47.47-13.59c0-1.88,0-3.75,0-5.62,0-4.36.07-8.81,0-13.29a203,203,0,0,1,115,55.52c31.95,31.43,51.64,68.92,58.51,111.44C546.89,238.9,535.33,289.55,503.55,334.18Z"/><path class="cls-1" d="M491.47,191.27c-7.88-44.1-31.11-79.11-69.08-104.11a152.84,152.84,0,0,0-59-22.88c-2-.36-6.71-1.16-10.47,2.12s-3.65,8.24-3.59,9.8c.19,5.81.13,11.86.06,17.71,0,3-.06,6.06-.06,9.08-.11,6.57,3.46,11.05,9.88,12.33A98,98,0,0,1,404,136.56c33.17,28.17,45.29,63.05,36,103.66-9.67,42.5-37.13,69.3-81.61,79.66-7.91,1.84-9.09,7.81-9.09,11.21v3.09l0,11.69c0,1.11,0,2.21.05,3.32l0,1.38a76.59,76.59,0,0,1-.05,8.05c-.36,4.34.74,7.73,3.28,10.07a10.65,10.65,0,0,0,7.43,2.72,19.09,19.09,0,0,0,3.15-.3,156,156,0,0,0,58-21.92q3.76-2.37,7.37-4.95a150.75,150.75,0,0,0,12.7-10.06,153.8,153.8,0,0,0,37.1-49.11A151.81,151.81,0,0,0,491.47,191.27ZM464,278l-.05.1a137.78,137.78,0,0,1-44.66,53.06q-2.15,1.53-4.34,3a140.14,140.14,0,0,1-30.32,15,138.21,138.21,0,0,1-19.16,5.26c0-1.46-.05-2.9-.08-4.31l0-.95c0-.87,0-1.74-.05-2.61l0-11.92,1.83-.48c47.33-12.62,77.87-43.79,88.47-90.4,10.56-46.24-3.7-87.53-41.28-119.44a114,114,0,0,0-49.07-24.1l.06-6.16c0-4.31.1-8.73,0-13.17a136.67,136.67,0,0,1,48.24,19.64c34.12,22.46,55,53.93,62.1,93.56A135.84,135.84,0,0,1,464,278Z"/><rect class="cls-1" x="112.4" y="334.18" width="29.67" height="15.01"/><rect class="cls-1" x="322.29" y="334.18" width="29.67" height="15.01"/></svg>