<svg xmlns="http://www.w3.org/2000/svg" xmlns:xlink="http://www.w3.org/1999/xlink" version="1.1" width="256" height="256" viewBox="0 0 256 256" xml:space="preserve">

<defs>
</defs>
<g style="stroke: none; stroke-width: 0; stroke-dasharray: none; stroke-linecap: butt; stroke-linejoin: miter; stroke-miterlimit: 10; fill: none; fill-rule: nonzero; opacity: 1;" transform="translate(1.4065934065934016 1.4065934065934016) scale(2.81 2.81)" >
	<path d="M 82.802 85.468 H 7.198 c -0.552 0 -1 -0.447 -1 -1 V 34.54 c 0 -0.552 0.448 -1 1 -1 s 1 0.448 1 1 v 48.928 h 73.604 V 34.54 c 0 -0.552 0.447 -1 1 -1 s 1 0.448 1 1 v 49.928 C 83.802 85.021 83.354 85.468 82.802 85.468 z" style="stroke: none; stroke-width: 1; stroke-dasharray: none; stroke-linecap: butt; stroke-linejoin: miter; stroke-miterlimit: 10; fill: rgb(0,0,0); fill-rule: nonzero; opacity: 1;" transform=" matrix(1 0 0 1 0 0) " stroke-linecap="round" />
	<path d="M 45 35.931 c -5.404 0 -9.8 -4.396 -9.8 -9.8 l 1.221 -12.848 c 0.049 -0.513 0.48 -0.905 0.996 -0.905 h 15.166 c 0.516 0 0.946 0.392 0.995 0.905 l 1.217 12.753 c 0.003 0.032 0.005 0.063 0.005 0.095 C 54.8 31.535 50.403 35.931 45 35.931 z M 38.326 14.378 l -1.13 11.848 c 0.004 4.206 3.503 7.705 7.804 7.705 c 4.285 0 7.774 -3.475 7.8 -7.754 l -1.126 -11.799 H 38.326 z" style="stroke: none; stroke-width: 1; stroke-dasharray: none; stroke-linecap: butt; stroke-linejoin: miter; stroke-miterlimit: 10; fill: rgb(0,0,0); fill-rule: nonzero; opacity: 1;" transform=" matrix(1 0 0 1 0 0) " stroke-linecap="round" />
	<path d="M 27.4 35.931 c -5.404 0 -9.8 -4.396 -9.8 -9.8 c 0 -0.143 0.031 -0.284 0.09 -0.414 l 5.799 -12.753 c 0.162 -0.357 0.518 -0.586 0.91 -0.586 h 13.018 c 0.282 0 0.55 0.119 0.74 0.327 c 0.19 0.208 0.283 0.487 0.256 0.768 l -1.217 12.753 C 37.2 31.535 32.804 35.931 27.4 35.931 z M 19.603 26.341 c 0.112 4.204 3.566 7.59 7.797 7.59 c 4.301 0 7.8 -3.499 7.8 -7.8 l 1.117 -11.753 H 25.043 L 19.603 26.341 z" style="stroke: none; stroke-width: 1; stroke-dasharray: none; stroke-linecap: butt; stroke-linejoin: miter; stroke-miterlimit: 10; fill: rgb(0,0,0); fill-rule: nonzero; opacity: 1;" transform=" matrix(1 0 0 1 0 0) " stroke-linecap="round" />
	<path d="M 9.8 35.931 c -5.404 0 -9.8 -4.396 -9.8 -9.8 c 0 -0.25 0.094 -0.492 0.263 -0.676 l 11.699 -12.753 c 0.189 -0.207 0.457 -0.324 0.737 -0.324 h 11.7 c 0.34 0 0.657 0.173 0.841 0.458 c 0.184 0.286 0.21 0.646 0.069 0.956 l -5.711 12.561 C 19.479 31.655 15.129 35.931 9.8 35.931 z M 2.009 26.51 c 0.198 4.125 3.617 7.421 7.791 7.421 c 4.301 0 7.8 -3.499 7.8 -7.8 c 0 -0.143 0.031 -0.284 0.09 -0.414 l 5.156 -11.339 h -9.707 L 2.009 26.51 z" style="stroke: none; stroke-width: 1; stroke-dasharray: none; stroke-linecap: butt; stroke-linejoin: miter; stroke-miterlimit: 10; fill: rgb(0,0,0); fill-rule: nonzero; opacity: 1;" transform=" matrix(1 0 0 1 0 0) " stroke-linecap="round" />
	<path d="M 62.6 35.931 c -5.403 0 -9.8 -4.396 -9.8 -9.8 l -1.212 -12.658 c -0.027 -0.281 0.065 -0.56 0.255 -0.768 s 0.458 -0.327 0.74 -0.327 h 13.019 c 0.393 0 0.748 0.229 0.91 0.586 l 5.799 12.753 c 0.06 0.13 0.09 0.271 0.09 0.414 C 72.4 31.535 68.004 35.931 62.6 35.931 z M 53.683 14.378 l 1.112 11.658 c 0.005 4.396 3.504 7.896 7.805 7.896 c 4.231 0 7.687 -3.386 7.798 -7.59 l -5.439 -11.963 H 53.683 z" style="stroke: none; stroke-width: 1; stroke-dasharray: none; stroke-linecap: butt; stroke-linejoin: miter; stroke-miterlimit: 10; fill: rgb(0,0,0); fill-rule: nonzero; opacity: 1;" transform=" matrix(1 0 0 1 0 0) " stroke-linecap="round" />
	<path d="M 80.2 35.931 c -5.329 0 -9.679 -4.276 -9.797 -9.578 l -5.712 -12.561 c -0.141 -0.31 -0.114 -0.669 0.069 -0.956 c 0.184 -0.286 0.501 -0.458 0.841 -0.458 h 11.699 c 0.28 0 0.548 0.118 0.737 0.324 l 11.699 12.753 C 89.906 25.639 90 25.88 90 26.131 C 90 31.535 85.604 35.931 80.2 35.931 z M 67.155 14.378 l 5.155 11.339 c 0.06 0.13 0.09 0.271 0.09 0.414 c 0 4.301 3.499 7.8 7.8 7.8 c 4.174 0 7.593 -3.295 7.791 -7.421 l -11.13 -12.132 H 67.155 z" style="stroke: none; stroke-width: 1; stroke-dasharray: none; stroke-linecap: butt; stroke-linejoin: miter; stroke-miterlimit: 10; fill: rgb(0,0,0); fill-rule: nonzero; opacity: 1;" transform=" matrix(1 0 0 1 0 0) " stroke-linecap="round" />
	<path d="M 44.115 76.028 H 16.602 c -0.552 0 -1 -0.447 -1 -1 V 46.017 c 0 -0.552 0.448 -1 1 -1 h 27.513 c 0.552 0 1 0.448 1 1 v 29.012 C 45.115 75.581 44.667 76.028 44.115 76.028 z M 17.602 74.028 h 25.513 V 47.017 H 17.602 V 74.028 z" style="stroke: none; stroke-width: 1; stroke-dasharray: none; stroke-linecap: butt; stroke-linejoin: miter; stroke-miterlimit: 10; fill: rgb(0,0,0); fill-rule: nonzero; opacity: 1;" transform=" matrix(1 0 0 1 0 0) " stroke-linecap="round" />
	<path d="M 73.398 85.468 H 53.076 c -0.553 0 -1 -0.447 -1 -1 V 46.017 c 0 -0.552 0.447 -1 1 -1 h 20.322 c 0.553 0 1 0.448 1 1 v 38.451 C 74.398 85.021 73.951 85.468 73.398 85.468 z M 54.076 83.468 h 18.322 V 47.017 H 54.076 V 83.468 z" style="stroke: none; stroke-width: 1; stroke-dasharray: none; stroke-linecap: butt; stroke-linejoin: miter; stroke-miterlimit: 10; fill: rgb(0,0,0); fill-rule: nonzero; opacity: 1;" transform=" matrix(1 0 0 1 0 0) " stroke-linecap="round" />
	<path d="M 59.712 66.242 h -6.636 c -0.553 0 -1 -0.447 -1 -1 s 0.447 -1 1 -1 h 6.636 c 0.553 0 1 0.447 1 1 S 60.265 66.242 59.712 66.242 z" style="stroke: none; stroke-width: 1; stroke-dasharray: none; stroke-linecap: butt; stroke-linejoin: miter; stroke-miterlimit: 10; fill: rgb(0,0,0); fill-rule: nonzero; opacity: 1;" transform=" matrix(1 0 0 1 0 0) " stroke-linecap="round" />
	<path d="M 22.347 55.993 c -0.256 0 -0.512 -0.098 -0.707 -0.293 c -0.391 -0.391 -0.391 -1.023 0 -1.414 l 3.231 -3.23 c 0.391 -0.391 1.023 -0.391 1.414 0 s 0.391 1.023 0 1.414 l -3.231 3.23 C 22.859 55.896 22.603 55.993 22.347 55.993 z" style="stroke: none; stroke-width: 1; stroke-dasharray: none; stroke-linecap: butt; stroke-linejoin: miter; stroke-miterlimit: 10; fill: rgb(0,0,0); fill-rule: nonzero; opacity: 1;" transform=" matrix(1 0 0 1 0 0) " stroke-linecap="round" />
	<path d="M 23.564 62.763 c -0.256 0 -0.512 -0.098 -0.707 -0.293 c -0.391 -0.391 -0.391 -1.023 0 -1.414 l 8.783 -8.783 c 0.391 -0.391 1.023 -0.391 1.414 0 s 0.391 1.023 0 1.414 l -8.783 8.783 C 24.076 62.665 23.82 62.763 23.564 62.763 z" style="stroke: none; stroke-width: 1; stroke-dasharray: none; stroke-linecap: butt; stroke-linejoin: miter; stroke-miterlimit: 10; fill: rgb(0,0,0); fill-rule: nonzero; opacity: 1;" transform=" matrix(1 0 0 1 0 0) " stroke-linecap="round" />
	<path d="M 77.301 14.378 H 12.699 c -0.552 0 -1 -0.448 -1 -1 V 5.533 c 0 -0.552 0.448 -1 1 -1 h 64.602 c 0.553 0 1 0.448 1 1 v 7.845 C 78.301 13.93 77.854 14.378 77.301 14.378 z M 13.699 12.378 h 62.602 V 6.533 H 13.699 V 12.378 z" style="stroke: none; stroke-width: 1; stroke-dasharray: none; stroke-linecap: butt; stroke-linejoin: miter; stroke-miterlimit: 10; fill: rgb(0,0,0); fill-rule: nonzero; opacity: 1;" transform=" matrix(1 0 0 1 0 0) " stroke-linecap="round" />
	<path d="M 89 27.131 H 1 c -0.552 0 -1 -0.448 -1 -1 s 0.448 -1 1 -1 h 88 c 0.553 0 1 0.448 1 1 S 89.553 27.131 89 27.131 z" style="stroke: none; stroke-width: 1; stroke-dasharray: none; stroke-linecap: butt; stroke-linejoin: miter; stroke-miterlimit: 10; fill: rgb(0,0,0); fill-rule: nonzero; opacity: 1;" transform=" matrix(1 0 0 1 0 0) " stroke-linecap="round" />
</g>
</svg>